<svg width="80" height="80" viewBox="0 0 80 80" fill="none" xmlns="http://www.w3.org/2000/svg">
<g clip-path="url(#clip0_5072_32546)">
<path d="M43.75 0.000105118C63.7656 0.000105118 80 16.2345 80 36.2501C80 38.3282 78.3281 40.0001 76.25 40.0001C74.1719 40.0001 72.5 38.3282 72.5 36.2501C72.5 20.3751 59.625 7.50011 43.75 7.50011C41.6719 7.50011 40 5.82823 40 3.75011C40 1.67198 41.6719 0.000105118 43.75 0.000105118ZM45 30.0001C46.3261 30.0001 47.5979 30.5269 48.5355 31.4646C49.4732 32.4023 50 33.674 50 35.0001C50 36.3262 49.4732 37.598 48.5355 38.5356C47.5979 39.4733 46.3261 40.0001 45 40.0001C43.6739 40.0001 42.4021 39.4733 41.4645 38.5356C40.5268 37.598 40 36.3262 40 35.0001C40 33.674 40.5268 32.4023 41.4645 31.4646C42.4021 30.5269 43.6739 30.0001 45 30.0001ZM40 18.7501C40 16.672 41.6719 15.0001 43.75 15.0001C55.4844 15.0001 65 24.5157 65 36.2501C65 38.3282 63.3281 40.0001 61.25 40.0001C59.1719 40.0001 57.5 38.3282 57.5 36.2501C57.5 28.6564 51.3437 22.5001 43.75 22.5001C41.6719 22.5001 40 20.8282 40 18.7501ZM18.3594 0.218855C21.3906 -0.60927 24.5625 0.937605 25.7656 3.84386L32.0156 18.8439C33.0781 21.3907 32.3438 24.3439 30.2031 26.0782L22.5 32.3907C27.7031 43.3907 36.6094 52.297 47.6094 57.5001L53.9062 49.797C55.6562 47.6564 58.5937 46.922 61.1406 47.9845L76.1406 54.2345C79.0469 55.4376 80.5938 58.6095 79.7656 61.6407L76.0156 75.3907C75.2813 78.1095 72.8125 80.0001 70 80.0001C31.3438 80.0001 0 48.6564 0 10.0001C0 7.1876 1.89063 4.71886 4.60938 3.96886L18.3594 0.218855Z" fill="#4B5563"/>
</g>
<defs>
<clipPath id="clip0_5072_32546">
<rect width="80" height="80" fill="white"/>
</clipPath>
</defs>
</svg>
